<svg width="37" height="40" viewBox="0 0 37 40" fill="none" xmlns="http://www.w3.org/2000/svg">
<path opacity="0.5" d="M17.2356 25.2374C17.2327 25.2387 17.2298 25.24 17.2268 25.2412L17.2363 25.2404L17.2356 25.2374C17.4837 25.127 17.4136 24.868 17.4489 24.6646C17.6645 23.4299 17.6584 21.9924 17.8854 20.7967C17.9177 20.629 17.8843 20.4179 18.0983 20.3451C18.3807 21.0553 18.5833 22.292 18.9119 22.9358C20.1483 25.3532 21.0598 28.3034 22.2536 30.9508C23.6368 34.0203 25.3119 36.9669 27.1528 39.7768L29.2238 39.0221C26.389 35.1006 23.7834 31.167 21.8397 26.7002C21.4526 25.8096 20.2853 23.3008 20.2941 22.4968C20.2968 22.2752 20.4975 22.0072 20.5127 21.7259C20.5818 20.4665 20.5147 19.5395 19.7363 18.4838C20.8817 19.0655 21.9716 20.1159 23.3397 20.0015L21.273 17.5335C21.2206 17.4272 21.4066 17.3904 21.4791 17.403C21.6514 17.4341 23.1329 18.3738 23.369 18.5568C24.4278 19.3795 24.9598 20.5532 26.4888 20.6696C25.9777 19.4568 25.1921 18.2883 24.1561 17.4599C24.4734 17.258 25.4312 17.9156 25.7845 18.187C27.0691 19.1711 27.2133 20.0578 28.0505 21.0779C28.2824 21.3603 29.0603 21.6079 29.3742 21.8828C29.3063 20.7398 28.5704 19.7961 28.1147 18.8178C28.0452 18.669 27.7914 18.3695 28.0828 18.3354C28.5378 18.9621 29.0733 19.5043 29.5093 20.1519C30.2068 21.1875 30.5305 22.5085 31.6891 23.0788L30.9302 20.042L32.499 22.2666C32.9703 23.2813 33.3054 24.2865 34.4974 24.6355L33.7954 21.8264C32.8574 18.073 26.9881 14.0904 23.1505 15.0494L19.2795 16.0168L20.6666 14.9781L22.5034 14.0803L20.949 14.3074C20.8587 14.1203 21.1706 13.9939 21.2989 13.9393C22.6025 13.3925 23.7877 13.6173 24.8222 13.3168C25.2268 13.1996 25.6321 12.5756 26.1479 12.5226C26.1191 12.1103 26.0348 12.3024 25.8534 12.2606C25.4564 12.1695 24.7141 12.0904 24.2936 12.0664C23.7357 12.0348 23.0189 12.3092 22.6192 11.9557C24.187 11.4204 25.573 11.3708 27.1874 11.5449C28.1156 11.6452 28.6367 12.0909 29.6018 11.4997L26.7199 10.2873C28.2136 9.87525 29.6242 10.7375 30.9115 10.932C31.5453 11.0285 32.1718 10.8251 32.7912 11.0252C32.9881 10.8518 32.7438 10.758 32.6216 10.6627C32.113 10.2671 31.4967 9.91782 30.9127 9.63951C30.8599 9.5317 31.0341 9.50592 31.1191 9.51048C32.7741 9.60826 34.3388 11.1063 36.0728 10.2874C33.8937 8.89935 31.2023 7.62966 28.5491 7.77164C23.7256 8.03175 20.2295 11.6996 17.878 15.5589C17.2606 13.908 19.2894 12.733 18.8462 11.0435C18.6197 10.821 18.5286 11.1922 18.4269 11.308C18.1862 11.5778 17.5407 12.4925 17.3813 12.6163C17.2219 12.74 17.0735 12.6496 17.1004 12.4477C17.2546 11.3348 18.2831 9.90653 19.011 9.0761C19.5734 8.43544 20.2679 8.38126 20.1738 7.32069C20.1507 7.06674 20.1184 7.06674 19.8987 7.15553C18.9499 7.5346 17.8752 7.81611 17.1916 8.6306C17.0952 8.69018 17.0414 8.50038 17.0611 8.42447C17.1214 8.18838 18.1894 7.03421 18.4501 6.80611C18.9185 6.39547 20.0999 5.81145 20.3534 5.49643C20.3951 5.44406 20.8434 4.3141 20.854 4.24691C20.9094 3.90719 20.5876 4.08441 20.4191 4.11362C19.7011 4.24144 19.1276 4.63157 18.4657 4.88087C18.3037 4.94234 17.9902 5.18523 17.9534 4.89598C18.6092 4.38363 19.1181 3.72247 19.7956 3.22569C20.3136 2.84618 21.221 2.49518 21.6021 2.11603C21.9831 1.73688 22.327 0.492647 22.6974 -1.62844e-06C18.9782 1.38763 15.5777 4.04425 15.2926 8.26632C15.2694 8.59959 15.2269 10.1202 15.2774 10.3221L16.4917 15.181C16.3812 15.3651 16.3653 15.553 16.0719 15.4504C15.7626 15.3422 14.0917 13.8901 13.5892 13.5639C9.36995 10.8144 5.46181 10.4521 1.22226 13.6298C0.806687 13.9418 -0.370937 14.6829 0.115954 15.1598L5.08602 13.4337C5.27045 13.8167 5.04806 13.7207 4.88107 13.885C4.34633 14.4107 3.71368 14.8737 3.15238 15.3705C4.63053 16.2965 5.27307 14.8921 6.39491 14.2826C7.11485 13.8914 7.85148 13.6702 8.65338 13.5101C8.84805 13.9277 8.58809 13.7846 8.40631 13.9348C7.80553 14.4351 7.23967 14.8943 6.7869 15.5414C6.70379 15.6606 6.49848 15.607 6.68063 15.9358C8.10947 16.2191 8.73263 15.3826 9.91063 14.9721C10.5721 14.7406 11.7721 14.4375 12.4609 14.3734C12.5998 14.3613 12.9342 14.3245 12.9429 14.5337C11.9353 14.7032 11.0047 15.1874 10.1941 15.7901C10.0651 15.8869 9.85027 15.8922 9.9478 16.0888C11.5816 16.5726 13.2286 15.9545 14.9186 15.979C14.988 16.1988 14.4404 16.3825 14.2897 16.4379C12.574 17.0586 10.8904 17.4406 9.24071 18.3127C5.37804 20.3524 3.55175 24.1256 3.17402 28.3515C3.31292 28.5394 3.46359 28.2969 3.57061 28.2024C3.89662 27.9128 5.22682 26.6076 5.40368 26.3343C5.7092 25.8595 5.92063 24.2208 6.24626 23.4845C6.50814 22.8931 6.95104 22.342 7.2558 21.7674L7.05115 25.1305C7.039 25.34 7.16006 25.4178 7.3278 25.2953C8.38285 24.5283 8.47247 22.7507 9.06378 21.5608C9.32679 21.032 9.65166 20.525 10.0657 20.0972L9.70893 21.6899L9.57226 23.2857C11.1305 22.48 11.3393 20.6049 12.6464 19.4523L11.9803 21.2465L11.8869 21.899L15.4532 18.7508C14.605 20.5518 13.1681 22.1273 12.5514 24.0414C11.2936 27.9404 13.0604 32.3643 15.3036 35.5641L15.3685 33.8556L13.936 29.453C14.6594 29.8885 14.985 30.9654 15.5587 31.5834C15.698 31.7341 15.6138 31.8423 15.9458 31.6932C15.6923 31.2597 15.9436 30.6903 15.8749 30.3187C15.7144 29.4635 15.1099 28.4514 14.8947 27.5131C14.7316 26.8021 14.7373 25.8311 14.6196 25.0894L16.4378 28.5051C16.2818 27.9843 16.7038 27.3303 16.6784 26.906C16.6469 26.3799 16.3388 25.7858 16.2724 25.2426C16.1256 24.0355 16.1723 22.8413 16.1753 21.6339C16.7465 21.4153 16.3875 21.8438 16.4205 21.9759L17.2356 25.2374Z" fill="#CFC4A6"/>
</svg>
